{
    "asset" : {
        "generator" : "Khronos glTF Blender I/O v1.1.46",
        "version" : "2.0"
    },
    "scene" : 0,
    "scenes" : [
        {
            "name" : "Scene",
            "nodes" : [
                0,
                1,
                2,
                3,
                4,
                5,
                6,
                7
            ]
        }
    ],
    "nodes" : [
        {
            "name" : "Camera",
            "rotation" : [
                -0.015332398004829884,
                -0.0019150738371536136,
                0.0017679099692031741,
                0.9998790621757507
            ],
            "translation" : [
                0.40301382541656494,
                4.958309173583984,
                0.0023647546768188477
            ]
        },
        {
            "mesh" : 0,
            "name" : "Text",
            "translation" : [
                -0.6333300471305847,
                -0.9154517650604248,
                0.4024292230606079
            ]
        },
        {
            "mesh" : 1,
            "name" : "Cube",
            "scale" : [
                1.6105499267578125,
                0.3010229766368866,
                0.5696855187416077
            ],
            "translation" : [
                0.4078270494937897,
                -0.8983451724052429,
                0.13405442237854004
            ]
        },
        {
            "name" : "Light.002",
            "rotation" : [
                0.16907575726509094,
                0.7558803558349609,
                -0.27217137813568115,
                0.570947527885437
            ],
            "translation" : [
                0.5992535948753357,
                0.5177093148231506,
                0.05726432800292969
            ]
        },
        {
            "name" : "Light.001",
            "rotation" : [
                0.16907575726509094,
                0.7558803558349609,
                -0.27217137813568115,
                0.570947527885437
            ],
            "translation" : [
                3.4391303062438965,
                0.9586029052734375,
                0.05726432800292969
            ]
        },
        {
            "name" : "Light.003",
            "rotation" : [
                0.16907575726509094,
                0.7558803558349609,
                -0.27217137813568115,
                0.570947527885437
            ],
            "translation" : [
                -3.171947479248047,
                0.9586029052734375,
                0.05726432800292969
            ]
        },
        {
            "name" : "Light.004",
            "rotation" : [
                0.16907575726509094,
                0.7558803558349609,
                -0.27217137813568115,
                0.570947527885437
            ],
            "translation" : [
                0.45606160163879395,
                0.9586029052734375,
                -1.8313114643096924
            ]
        },
        {
            "name" : "Light.005",
            "rotation" : [
                0.16907575726509094,
                0.7558803558349609,
                -0.27217137813568115,
                0.570947527885437
            ],
            "translation" : [
                0.45606160163879395,
                0.9586029052734375,
                1.7777035236358643
            ]
        }
    ],
    "animations" : [
        {
            "channels" : [
                {
                    "sampler" : 0,
                    "target" : {
                        "node" : 1,
                        "path" : "translation"
                    }
                },
                {
                    "sampler" : 1,
                    "target" : {
                        "node" : 1,
                        "path" : "rotation"
                    }
                },
                {
                    "sampler" : 2,
                    "target" : {
                        "node" : 1,
                        "path" : "scale"
                    }
                }
            ],
            "name" : "TextAction.002",
            "samplers" : [
                {
                    "input" : 8,
                    "interpolation" : "LINEAR",
                    "output" : 9
                },
                {
                    "input" : 8,
                    "interpolation" : "LINEAR",
                    "output" : 10
                },
                {
                    "input" : 8,
                    "interpolation" : "LINEAR",
                    "output" : 11
                }
            ]
        },
        {
            "channels" : [
                {
                    "sampler" : 0,
                    "target" : {
                        "node" : 2,
                        "path" : "translation"
                    }
                },
                {
                    "sampler" : 1,
                    "target" : {
                        "node" : 2,
                        "path" : "rotation"
                    }
                },
                {
                    "sampler" : 2,
                    "target" : {
                        "node" : 2,
                        "path" : "scale"
                    }
                }
            ],
            "name" : "CubeAction",
            "samplers" : [
                {
                    "input" : 12,
                    "interpolation" : "STEP",
                    "output" : 13
                },
                {
                    "input" : 12,
                    "interpolation" : "STEP",
                    "output" : 14
                },
                {
                    "input" : 12,
                    "interpolation" : "STEP",
                    "output" : 15
                }
            ]
        },
        {
            "channels" : [
                {
                    "sampler" : 0,
                    "target" : {
                        "node" : 3,
                        "path" : "translation"
                    }
                },
                {
                    "sampler" : 1,
                    "target" : {
                        "node" : 3,
                        "path" : "rotation"
                    }
                },
                {
                    "sampler" : 2,
                    "target" : {
                        "node" : 3,
                        "path" : "scale"
                    }
                }
            ],
            "name" : "Light.002Action",
            "samplers" : [
                {
                    "input" : 16,
                    "interpolation" : "STEP",
                    "output" : 17
                },
                {
                    "input" : 16,
                    "interpolation" : "STEP",
                    "output" : 18
                },
                {
                    "input" : 16,
                    "interpolation" : "STEP",
                    "output" : 19
                }
            ]
        },
        {
            "channels" : [
                {
                    "sampler" : 0,
                    "target" : {
                        "node" : 4,
                        "path" : "translation"
                    }
                },
                {
                    "sampler" : 1,
                    "target" : {
                        "node" : 4,
                        "path" : "rotation"
                    }
                },
                {
                    "sampler" : 2,
                    "target" : {
                        "node" : 4,
                        "path" : "scale"
                    }
                }
            ],
            "name" : "Light.002Action.001",
            "samplers" : [
                {
                    "input" : 16,
                    "interpolation" : "STEP",
                    "output" : 20
                },
                {
                    "input" : 16,
                    "interpolation" : "STEP",
                    "output" : 21
                },
                {
                    "input" : 16,
                    "interpolation" : "STEP",
                    "output" : 22
                }
            ]
        },
        {
            "channels" : [
                {
                    "sampler" : 0,
                    "target" : {
                        "node" : 5,
                        "path" : "translation"
                    }
                },
                {
                    "sampler" : 1,
                    "target" : {
                        "node" : 5,
                        "path" : "rotation"
                    }
                },
                {
                    "sampler" : 2,
                    "target" : {
                        "node" : 5,
                        "path" : "scale"
                    }
                }
            ],
            "name" : "Light.002Action.002",
            "samplers" : [
                {
                    "input" : 16,
                    "interpolation" : "STEP",
                    "output" : 23
                },
                {
                    "input" : 16,
                    "interpolation" : "STEP",
                    "output" : 24
                },
                {
                    "input" : 16,
                    "interpolation" : "STEP",
                    "output" : 25
                }
            ]
        },
        {
            "channels" : [
                {
                    "sampler" : 0,
                    "target" : {
                        "node" : 6,
                        "path" : "translation"
                    }
                },
                {
                    "sampler" : 1,
                    "target" : {
                        "node" : 6,
                        "path" : "rotation"
                    }
                },
                {
                    "sampler" : 2,
                    "target" : {
                        "node" : 6,
                        "path" : "scale"
                    }
                }
            ],
            "name" : "Light.002Action.003",
            "samplers" : [
                {
                    "input" : 16,
                    "interpolation" : "STEP",
                    "output" : 26
                },
                {
                    "input" : 16,
                    "interpolation" : "STEP",
                    "output" : 27
                },
                {
                    "input" : 16,
                    "interpolation" : "STEP",
                    "output" : 28
                }
            ]
        },
        {
            "channels" : [
                {
                    "sampler" : 0,
                    "target" : {
                        "node" : 7,
                        "path" : "translation"
                    }
                },
                {
                    "sampler" : 1,
                    "target" : {
                        "node" : 7,
                        "path" : "rotation"
                    }
                },
                {
                    "sampler" : 2,
                    "target" : {
                        "node" : 7,
                        "path" : "scale"
                    }
                }
            ],
            "name" : "Light.002Action.004",
            "samplers" : [
                {
                    "input" : 16,
                    "interpolation" : "STEP",
                    "output" : 29
                },
                {
                    "input" : 16,
                    "interpolation" : "STEP",
                    "output" : 30
                },
                {
                    "input" : 16,
                    "interpolation" : "STEP",
                    "output" : 31
                }
            ]
        }
    ],
    "materials" : [
        {
            "doubleSided" : true,
            "name" : "Material.001",
            "pbrMetallicRoughness" : {}
        },
        {
            "doubleSided" : true,
            "name" : "Material",
            "pbrMetallicRoughness" : {}
        }
    ],
    "meshes" : [
        {
            "name" : "Text",
            "primitives" : [
                {
                    "attributes" : {
                        "POSITION" : 0,
                        "NORMAL" : 1,
                        "TEXCOORD_0" : 2
                    },
                    "indices" : 3,
                    "material" : 0
                }
            ]
        },
        {
            "name" : "Cube.001",
            "primitives" : [
                {
                    "attributes" : {
                        "POSITION" : 4,
                        "NORMAL" : 5,
                        "TEXCOORD_0" : 6
                    },
                    "indices" : 7,
                    "material" : 1
                }
            ]
        }
    ],
    "accessors" : [
        {
            "bufferView" : 0,
            "componentType" : 5126,
            "count" : 6668,
            "max" : [
                2.2928271293640137,
                0.29999998211860657,
                0.010548523627221584
            ],
            "min" : [
                0.06751054525375366,
                -0.29999998211860657,
                -0.6185653805732727
            ],
            "type" : "VEC3"
        },
        {
            "bufferView" : 1,
            "componentType" : 5126,
            "count" : 6668,
            "type" : "VEC3"
        },
        {
            "bufferView" : 2,
            "componentType" : 5126,
            "count" : 6668,
            "type" : "VEC2"
        },
        {
            "bufferView" : 3,
            "componentType" : 5123,
            "count" : 16968,
            "type" : "SCALAR"
        },
        {
            "bufferView" : 4,
            "componentType" : 5126,
            "count" : 24,
            "max" : [
                1,
                1,
                1
            ],
            "min" : [
                -1,
                -1,
                -1
            ],
            "type" : "VEC3"
        },
        {
            "bufferView" : 5,
            "componentType" : 5126,
            "count" : 24,
            "type" : "VEC3"
        },
        {
            "bufferView" : 6,
            "componentType" : 5126,
            "count" : 24,
            "type" : "VEC2"
        },
        {
            "bufferView" : 7,
            "componentType" : 5123,
            "count" : 36,
            "type" : "SCALAR"
        },
        {
            "bufferView" : 8,
            "componentType" : 5126,
            "count" : 41,
            "max" : [
                1.6666666666666667
            ],
            "min" : [
                0
            ],
            "type" : "SCALAR"
        },
        {
            "bufferView" : 9,
            "componentType" : 5126,
            "count" : 41,
            "type" : "VEC3"
        },
        {
            "bufferView" : 10,
            "componentType" : 5126,
            "count" : 41,
            "type" : "VEC4"
        },
        {
            "bufferView" : 11,
            "componentType" : 5126,
            "count" : 41,
            "type" : "VEC3"
        },
        {
            "bufferView" : 12,
            "componentType" : 5126,
            "count" : 1,
            "max" : [
                0.4166666666666667
            ],
            "min" : [
                0.4166666666666667
            ],
            "type" : "SCALAR"
        },
        {
            "bufferView" : 13,
            "componentType" : 5126,
            "count" : 1,
            "type" : "VEC3"
        },
        {
            "bufferView" : 14,
            "componentType" : 5126,
            "count" : 1,
            "type" : "VEC4"
        },
        {
            "bufferView" : 15,
            "componentType" : 5126,
            "count" : 1,
            "type" : "VEC3"
        },
        {
            "bufferView" : 16,
            "componentType" : 5126,
            "count" : 1,
            "max" : [
                0.7083333333333334
            ],
            "min" : [
                0.7083333333333334
            ],
            "type" : "SCALAR"
        },
        {
            "bufferView" : 17,
            "componentType" : 5126,
            "count" : 1,
            "type" : "VEC3"
        },
        {
            "bufferView" : 18,
            "componentType" : 5126,
            "count" : 1,
            "type" : "VEC4"
        },
        {
            "bufferView" : 19,
            "componentType" : 5126,
            "count" : 1,
            "type" : "VEC3"
        },
        {
            "bufferView" : 20,
            "componentType" : 5126,
            "count" : 1,
            "type" : "VEC3"
        },
        {
            "bufferView" : 21,
            "componentType" : 5126,
            "count" : 1,
            "type" : "VEC4"
        },
        {
            "bufferView" : 22,
            "componentType" : 5126,
            "count" : 1,
            "type" : "VEC3"
        },
        {
            "bufferView" : 23,
            "componentType" : 5126,
            "count" : 1,
            "type" : "VEC3"
        },
        {
            "bufferView" : 24,
            "componentType" : 5126,
            "count" : 1,
            "type" : "VEC4"
        },
        {
            "bufferView" : 25,
            "componentType" : 5126,
            "count" : 1,
            "type" : "VEC3"
        },
        {
            "bufferView" : 26,
            "componentType" : 5126,
            "count" : 1,
            "type" : "VEC3"
        },
        {
            "bufferView" : 27,
            "componentType" : 5126,
            "count" : 1,
            "type" : "VEC4"
        },
        {
            "bufferView" : 28,
            "componentType" : 5126,
            "count" : 1,
            "type" : "VEC3"
        },
        {
            "bufferView" : 29,
            "componentType" : 5126,
            "count" : 1,
            "type" : "VEC3"
        },
        {
            "bufferView" : 30,
            "componentType" : 5126,
            "count" : 1,
            "type" : "VEC4"
        },
        {
            "bufferView" : 31,
            "componentType" : 5126,
            "count" : 1,
            "type" : "VEC3"
        }
    ],
    "bufferViews" : [
        {
            "buffer" : 0,
            "byteLength" : 80016,
            "byteOffset" : 0
        },
        {
            "buffer" : 0,
            "byteLength" : 80016,
            "byteOffset" : 80016
        },
        {
            "buffer" : 0,
            "byteLength" : 53344,
            "byteOffset" : 160032
        },
        {
            "buffer" : 0,
            "byteLength" : 33936,
            "byteOffset" : 213376
        },
        {
            "buffer" : 0,
            "byteLength" : 288,
            "byteOffset" : 247312
        },
        {
            "buffer" : 0,
            "byteLength" : 288,
            "byteOffset" : 247600
        },
        {
            "buffer" : 0,
            "byteLength" : 192,
            "byteOffset" : 247888
        },
        {
            "buffer" : 0,
            "byteLength" : 72,
            "byteOffset" : 248080
        },
        {
            "buffer" : 0,
            "byteLength" : 164,
            "byteOffset" : 248152
        },
        {
            "buffer" : 0,
            "byteLength" : 492,
            "byteOffset" : 248316
        },
        {
            "buffer" : 0,
            "byteLength" : 656,
            "byteOffset" : 248808
        },
        {
            "buffer" : 0,
            "byteLength" : 492,
            "byteOffset" : 249464
        },
        {
            "buffer" : 0,
            "byteLength" : 4,
            "byteOffset" : 249956
        },
        {
            "buffer" : 0,
            "byteLength" : 12,
            "byteOffset" : 249960
        },
        {
            "buffer" : 0,
            "byteLength" : 16,
            "byteOffset" : 249972
        },
        {
            "buffer" : 0,
            "byteLength" : 12,
            "byteOffset" : 249988
        },
        {
            "buffer" : 0,
            "byteLength" : 4,
            "byteOffset" : 250000
        },
        {
            "buffer" : 0,
            "byteLength" : 12,
            "byteOffset" : 250004
        },
        {
            "buffer" : 0,
            "byteLength" : 16,
            "byteOffset" : 250016
        },
        {
            "buffer" : 0,
            "byteLength" : 12,
            "byteOffset" : 250032
        },
        {
            "buffer" : 0,
            "byteLength" : 12,
            "byteOffset" : 250044
        },
        {
            "buffer" : 0,
            "byteLength" : 16,
            "byteOffset" : 250056
        },
        {
            "buffer" : 0,
            "byteLength" : 12,
            "byteOffset" : 250072
        },
        {
            "buffer" : 0,
            "byteLength" : 12,
            "byteOffset" : 250084
        },
        {
            "buffer" : 0,
            "byteLength" : 16,
            "byteOffset" : 250096
        },
        {
            "buffer" : 0,
            "byteLength" : 12,
            "byteOffset" : 250112
        },
        {
            "buffer" : 0,
            "byteLength" : 12,
            "byteOffset" : 250124
        },
        {
            "buffer" : 0,
            "byteLength" : 16,
            "byteOffset" : 250136
        },
        {
            "buffer" : 0,
            "byteLength" : 12,
            "byteOffset" : 250152
        },
        {
            "buffer" : 0,
            "byteLength" : 12,
            "byteOffset" : 250164
        },
        {
            "buffer" : 0,
            "byteLength" : 16,
            "byteOffset" : 250176
        },
        {
            "buffer" : 0,
            "byteLength" : 12,
            "byteOffset" : 250192
        }
    ],
    "buffers" : [
        {
            "byteLength" : 250204,
            "uri" : "data:application/octet-stream;base64,"
        }
    ]
}
